# xmcd CD database file
#
# Track frame offsets:
#	150
#	13597
#	25588
#	37891
#	53704
#	65539
#	75580
#	86895
#	97118
#	107055
#	119644
#	129399
#	141702
#	154057
#	166308
#	176791
#	189172
#	201507
#	212744
#
# Disc length: 2995 seconds
#
# Revision: 0
# Processed by: cddbd v1.5.1PL2 Copyright (c) Steve Scherf et al.
# Submitted via: CDex 1.51
#
DISCID=0d0bb113
DTITLE=John Lee Hooker - The Blues Biography
DYEAR=2005
DGENRE=Blues
TTITLE0=Trouble Blues
TTITLE1=Everybody's Rockin'
TTITLE2=Crawlin' Black Spider
TTITLE3=Mama, You've Got a Daughter
TTITLE4=I'm Mad Again
TTITLE5=I Wanna Walk
TTITLE6=Boom Boom
TTITLE7=Maudie
TTITLE8=Dimples
TTITLE9=I'm So Excited
TTITLE10=Onions
TTITLE11=Drugstore Women
TTITLE12=War is Over (Goodbye California)
TTITLE13=House Rent Boogie
TTITLE14=Hastings Street Boogie
TTITLE15=Canal Street Boogie
TTITLE16=Alberta Part 2
TTITLE17=Goin' Down Highway 51
TTITLE18=Crawling King Snake
EXTD=YEAR: 2005
EXTT0=
EXTT1=
EXTT2=
EXTT3=
EXTT4=
EXTT5=
EXTT6=
EXTT7=
EXTT8=
EXTT9=
EXTT10=
EXTT11=
EXTT12=
EXTT13=
EXTT14=
EXTT15=
EXTT16=
EXTT17=
EXTT18=
PLAYORDER=
